<?xml version="1.0" encoding="iso-8859-1"?>
<!-- Uploaded to: SVG Repo, www.svgrepo.com, Generator: SVG Repo Mixer Tools -->
<svg fill="#000000" height="800px" width="800px" version="1.1" id="Layer_1" xmlns="http://www.w3.org/2000/svg" xmlns:xlink="http://www.w3.org/1999/xlink" 
	 viewBox="0 0 512 512" xml:space="preserve">
<g>
	<g>
		<path d="M125.548,235.428c-3.126-4.889-9.624-6.317-14.511-3.191c-6.779,4.336-13.292,9.211-19.357,14.49
			c-20.006,17.41-35.682,39.624-45.332,64.237c-0.865,2.205-1.694,4.465-2.467,6.715c-1.88,5.49,1.045,11.465,6.535,13.344
			c1.128,0.387,2.276,0.57,3.406,0.57c4.366,0,8.444-2.744,9.938-7.104c0.672-1.963,1.395-3.931,2.149-5.853
			c8.42-21.477,22.102-40.862,39.566-56.06c5.29-4.605,10.97-8.856,16.882-12.637C127.245,246.813,128.674,240.316,125.548,235.428z
			"/>
	</g>
</g>
<g>
	<g>
		<path d="M509.544,291.479c-3.399-3.76-7.021-7.202-10.824-10.304c0.149-0.584,0.775-8.827,0.775-12.63
			c0-30.157-8.147-59.358-23.061-83.322c1.232-1.126,2.454-2.284,3.654-3.484c26.333-26.333,34.098-58.274,18.079-74.293
			c-5.396-5.417-12.885-8.275-21.67-8.285h-0.032c-16.454,0-36.127,9.847-52.623,26.343c-2.741,2.741-5.301,5.587-7.669,8.508
			c-15.19-6.044-31.686-9.114-49.192-9.114c-17.516,0-34.013,3.07-49.203,9.114c-2.369-2.921-4.929-5.768-7.68-8.508
			c-16.486-16.497-36.159-26.343-52.613-26.343h-0.032c-8.785,0.011-16.274,2.868-21.659,8.275
			c-14.712,14.712-9.369,42.819,11.95,67.696c-15.657-3.813-31.761-5.757-47.992-5.757c-24.708,0-48.831,4.44-71.467,13.012V86.265
			c0-35.372-28.776-64.138-64.138-64.138c-35.362,0-64.138,28.765-64.138,64.138V345.43c0,0.106-0.011,0.223-0.011,0.329v117.324
			c0,14.776,12.014,26.79,26.779,26.79h56.638c9.9,0,18.005-7.765,18.578-17.527h34.321c10.272,0,18.642-8.37,18.642-18.653v-8.126
			c0-14.776-12.025-26.8-26.8-26.8h-1.275v-37.242h65.837v81.559c0,14.776,12.024,26.79,26.779,26.79h56.628
			c9.911,0,18.016-7.765,18.6-17.527h34.3c10.293,0,18.653-8.37,18.653-18.653v-8.126c0-14.776-12.024-26.8-26.79-26.8h-1.285V380.6
			c9.337-1.646,18.175-5.46,25.791-11.175c6.83,2.634,14.107,4.015,21.585,4.015c17.357,0,33.63-7.404,45.857-20.831
			c0.032-0.032,0.064-0.064,0.096-0.096c8.604-9.496,19.949-14.712,31.952-14.712c12.003,0,23.348,5.216,31.941,14.712
			c1.87,2.05,4.44,3.102,7.011,3.102c2.263,0,4.536-0.807,6.352-2.454c2.05-1.859,3.091-4.419,3.091-6.99l0.011-0.011
			c0-12.216-2.518-24.261-7.319-35.171c3.622-3.973,8.827-5.64,13.767-4.111c0,0,1.859,0.404,2.804,0.404
			c2.263,0,4.536-0.807,6.352-2.454C512.763,301.326,513.06,295.345,509.544,291.479z M478.389,263.351
			c-14.181-9.826-30.847-15.498-48.491-16.316c-0.351-0.053-0.69-0.085-1.052-0.096c-6.193-0.212-11.94-2.815-16.178-7.34
			c-4.238-4.536-6.448-10.442-6.246-16.645c0.414-12.534,10.75-22.434,23.189-22.434c0.266,0,0.521,0,0.786,0.011
			c12.216,0.404,23.953,3.134,34.926,8.115C473.173,225.216,477.698,243.954,478.389,263.351z M438.704,140.365
			c12.269-12.269,27.087-20.193,37.763-20.193h0.011c2.156,0.011,5.088,0.372,6.82,2.114c5.407,5.407,1.062,25.472-18.069,44.603
			c-0.425,0.425-0.871,0.839-1.307,1.264c-8.349-9.677-17.856-17.835-28.436-24.4C436.526,142.606,437.588,141.48,438.704,140.365z
			 M318.915,156.447c0.127-0.064,0.255-0.127,0.382-0.191c14.351-6.862,30.391-10.346,47.684-10.346
			c17.283,0,33.322,3.484,47.673,10.346c0.127,0.064,0.255,0.127,0.372,0.191c13.31,6.416,24.92,15.604,34.608,27.363
			c-6.076-1.243-12.29-1.976-18.61-2.188c-23.178-0.754-42.723,17.484-43.499,40.705c-0.382,11.249,3.643,21.967,11.334,30.189
			c5.205,5.566,11.674,9.528,18.802,11.621c-14.33,4.132-27.586,11.908-38.835,22.902c-3.643-1.392-7.648-2.178-11.855-2.178
			c-4.387,0-8.551,0.86-12.311,2.369c-11.207-11.005-24.421-18.78-38.708-22.923c7.351-2.05,14.032-6.076,19.375-11.791
			c7.691-8.222,11.716-18.94,11.345-30.189c-0.775-23.221-20.289-41.438-43.509-40.705c-6.416,0.223-12.726,0.977-18.897,2.241
			C293.963,172.083,305.595,162.874,318.915,156.447z M378.209,311.852c0,4.376-5.141,8.073-11.238,8.073
			c-6.087,0-11.228-3.697-11.228-8.073s5.141-8.073,11.228-8.073C373.068,303.779,378.209,307.476,378.209,311.852z M305.34,246.939
			c-0.351,0.011-0.701,0.043-1.041,0.096c-17.761,0.818-34.501,6.554-48.735,16.486c0.659-19.407,5.162-38.156,13.002-54.737
			c11.058-5.067,22.891-7.85,35.224-8.254c12.768-0.446,23.55,9.634,23.975,22.424c0.212,6.203-2.008,12.109-6.246,16.645
			C317.279,244.124,311.543,246.727,305.34,246.939z M250.656,122.275c1.731-1.731,4.663-2.093,6.82-2.103h0.011
			c10.675,0,25.494,7.924,37.762,20.193c1.115,1.115,2.178,2.241,3.219,3.389c-10.58,6.565-20.087,14.723-28.436,24.4
			c-0.436-0.425-0.882-0.839-1.307-1.264C249.594,147.758,245.238,127.692,250.656,122.275z M21.022,86.265
			c0-23.783,19.354-43.127,43.127-43.127c23.784,0,43.127,19.343,43.127,43.127v0.51c-5.067,2.613-20.236,6.373-43.127,6.373
			c-22.881,0-38.06-3.76-43.127-6.373V86.265z M21.022,109.071c0.839,0.244,1.7,0.489,2.581,0.712
			c10.962,2.815,25.366,4.376,40.546,4.376c15.179,0,29.583-1.562,40.546-4.376c0.882-0.223,1.742-0.467,2.581-0.712v20.108
			c-5.067,2.624-20.236,6.363-43.127,6.363c-22.87,0-38.039-3.739-43.127-6.363V109.071z M21.022,151.487
			c0.839,0.244,1.7,0.478,2.581,0.712c10.962,2.815,25.366,4.366,40.546,4.366c15.179,0,29.583-1.551,40.546-4.366
			c0.892-0.223,1.742-0.467,2.581-0.712v20.098c-5.067,2.624-20.236,6.373-43.127,6.373c-22.881,0-38.06-3.75-43.127-6.373V151.487z
			 M21.022,193.891c0.839,0.244,1.7,0.489,2.581,0.712c10.962,2.815,25.366,4.366,40.546,4.366c13.161,0,25.738-1.169,35.999-3.314
			c-5.29,3.017-10.474,6.278-15.509,9.794c-6.586,4.578-12.874,9.571-18.865,14.903c-0.542,0.011-1.083,0.011-1.625,0.011
			c-22.87,0-38.039-3.75-43.127-6.363V193.891z M21.022,236.327c1.115,0.308,2.093,0.563,2.847,0.754
			c6.395,1.625,13.947,2.804,22.116,3.516c-0.138,0.181-0.297,0.34-0.435,0.521c-3.898,4.61-7.637,9.475-11.111,14.425
			c-4.95,7.085-9.433,14.446-13.416,22.063V236.327z M128.159,439.788c3.197,0,5.779,2.592,5.779,5.779v5.768H99.319
			c-4.387-8.912-13.597-15.031-24.038-15.031h-1.285v-4.238c13.575-10.112,24.453-23.199,31.878-38.166v35.372
			c0,5.8,4.706,10.516,10.505,10.516H128.159z M320.891,439.788c3.187,0,5.779,2.592,5.779,5.779v5.768h-34.629
			c-4.398-8.912-13.597-15.031-24.038-15.031h-1.296v-54.78h31.888v47.748c0,5.8,4.706,10.516,10.505,10.516H320.891z
			 M309.111,360.513h-52.91c-5.8,0-10.506,4.706-10.506,10.505v75.791c0,5.81,4.706,10.505,10.506,10.505h11.801
			c2.996,0,5.513,2.337,5.747,5.332c0.011,0.149,0.021,0.287,0.021,0.435v5.779H219.5c-3.165,0-5.768-2.592-5.768-5.779v-92.064
			c0-5.8-4.695-10.505-10.505-10.505h-99.946c-4.78,0-8.944,3.229-10.166,7.85c-5.29,20.257-17.877,37.837-35.436,49.49
			c-2.932,1.944-4.695,5.237-4.695,8.753v20.204c0,5.81,4.706,10.506,10.505,10.506h11.791c2.985,0,5.513,2.337,5.747,5.332
			c0.011,0.149,0.021,0.287,0.021,0.436v5.779h-54.27c-3.176,0-5.768-2.592-5.768-5.779l0.011-117.653
			c0.011-0.393,3.633-19.959,6.469-28.914c5.524-17.431,13.639-33.896,24.166-48.927c3.112-4.44,6.448-8.795,9.943-12.938
			c10.251-12.152,22.041-22.912,35.043-31.952c30.327-21.138,65.986-32.313,103.111-32.313c17.113,0,34.055,2.401,50.35,7.117
			c0.17,0.053,0.34,0.074,0.51,0.117c-10.506,21.33-16.157,45.793-16.157,70.925c0,3.643,0.149,7.298,0.446,10.845
			c0.053,0.627,0.17,1.222,0.319,1.806c-3.803,3.102-7.414,6.533-10.814,10.282c-0.011,0-0.011,0-0.011,0
			c-3.505,3.867-3.208,9.847,0.659,13.352c2.571,2.326,6.065,2.974,9.146,2.018l0.021,0.032c4.929-1.53,10.144,0.138,13.756,4.111
			c-4.738,10.803-7.244,22.711-7.298,34.799c-0.011,0.128-0.021,0.244-0.021,0.361v0.011h0.011c0.011,5.226,4.238,9.454,9.454,9.454
			c2.783,0,5.269-1.2,7-3.102c0.053-0.074,0.117-0.138,0.181-0.202c8.583-9.358,19.843-14.51,31.761-14.51
			c12.003,0,23.359,5.216,31.952,14.701v0.011c1.423,1.562,2.911,3.049,4.44,4.451C320.37,359.281,314.804,360.513,309.111,360.513z
			 M466.715,305.829c-1.477,2.857-1.36,6.108,0.021,8.753c1.721,3.282,3.165,6.745,4.313,10.314
			c-8.126-3.93-16.996-6.012-26.163-6.012c-17.41,0-33.737,7.436-45.963,20.926c0,0,0,0.011-0.011,0.011
			c-8.604,9.475-19.938,14.701-31.931,14.701c-12.014,0-23.359-5.226-31.952-14.712c-3.059-3.378-6.373-6.373-9.889-8.965
			c-3.527-2.592-7.255-4.78-11.154-6.554c-7.786-3.537-16.22-5.407-24.92-5.407c-9.167,0-18.026,2.082-26.163,6.012
			c1.158-3.58,2.592-7.032,4.323-10.314h-0.011c1.391-2.645,1.508-5.895,0.032-8.753c-3.314-6.395-8.201-11.334-13.905-14.489
			c11.483-7.542,24.591-11.578,38.23-11.578c17.952,0,34.969,6.99,48.587,19.789c-2.124,3.686-3.325,7.871-3.325,12.301
			c0,14.871,13.522,26.981,30.136,26.981c16.624,0,30.146-12.109,30.146-26.981c0-4.599-1.285-8.923-3.558-12.715
			c13.628-12.63,30.603-19.524,48.48-19.524c13.777,0,27.013,4.079,38.591,11.727C474.926,294.485,470.04,299.424,466.715,305.829z"
			/>
	</g>
</g>
<g>
	<g>
		<circle cx="304.564" cy="223.739" r="10.505"/>
	</g>
</g>
<g>
	<g>
		<circle cx="429.621" cy="223.739" r="10.505"/>
	</g>
</g>
</svg>