<?xml version="1.0" encoding="iso-8859-1"?>
<!-- Uploaded to: SVG Repo, www.svgrepo.com, Generator: SVG Repo Mixer Tools -->
<svg fill="#000000" height="800px" width="800px" version="1.1" id="Layer_1" xmlns="http://www.w3.org/2000/svg" xmlns:xlink="http://www.w3.org/1999/xlink" 
	 viewBox="0 0 512 512" xml:space="preserve">
<g>
	<g>
		<path d="M505.475,164c-8.924-9.286-23.738-9.584-33.035-0.66c0,0-4.153,4.356-10.17,6.773c-7.199,2.875-14.047,0.341-21.437,3.631
			c0,0-40.084-34.259-40.148-34.313c-1.81-1.384-3.695-2.652-5.634-3.834c3.642-5.186,8.701-9.308,14.611-11.789
			c3.717-1.555,6.155-5.176,6.219-9.212c0.064-4.036-2.268-7.721-5.942-9.382c-8.339-3.791-17.604-5.41-26.783-4.654
			c-4.654,0.373-9.244,1.363-13.642,2.918c-7.998-1.193-16.219-0.575-23.993,1.821c-10.287,3.174-19.222,9.308-25.867,17.38
			c-3.695-0.522-7.455-0.788-11.246-0.788c-20.202,0-39.786,7.891-54.397,21.767H138.464c-21.278,0-42.129,7.359-58.71,20.713
			c-14.196,11.438-24.792,26.847-30.404,44.003h-1.331c-22.96,0-41.639,18.679-41.639,41.65v13.45C2.503,266.511,0,271.208,0,276.49
			v5.761c0,9.105,7.412,16.517,16.528,16.517c9.105,0,16.517-7.412,16.517-16.517v-5.761c0-5.282-2.503-9.979-6.368-13.014v-13.45
			c0-10.799,8.051-19.712,18.455-21.128c-0.256,2.822-0.383,5.644-0.383,8.477c0,0,0.053,47.89,0.064,47.944
			c1.555,17.976,11.022,34.11,25.74,44.27v59.956c0,12.172,9.904,22.076,22.076,22.076h59.828c8.583,0,15.569-6.986,15.569-15.58
			c0-1.448-0.117-2.875-0.319-4.281h22.896c8.594,0,15.58-6.986,15.58-15.58c0-8.349-3.408-16.145-9.329-21.767v-14.164h41.575
			v49.296c0,12.172,9.904,22.076,22.076,22.076h59.828c8.594,0,15.58-6.986,15.58-15.58c0-1.448-0.107-2.875-0.309-4.281h22.886
			c8.583,0,15.58-6.986,15.58-15.58c0-8.349-3.408-16.145-9.34-21.767V307c3.504-6.975,5.602-14.611,6.177-22.502h51.224
			c30.18,0,54.738-24.547,54.738-54.738c0-2.002-0.128-3.994-0.351-5.974c0.447-0.234,10.958-6.028,18.818-13.876
			c8.189-8.189,13.738-18.445,13.738-18.445C514.037,182.455,512.589,171.423,505.475,164z M158.687,371.461v-31.213h17.87v19.073
			c0,3.493,1.778,6.73,4.739,8.594c1.438,0.895,2.588,2.13,3.376,3.546H158.687z M326.565,371.461v-33.29
			c6.368-1.715,12.407-4.473,17.87-8.147v29.297c0,3.493,1.789,6.73,4.739,8.594c1.438,0.895,2.588,2.13,3.376,3.546H326.565z
			 M422.133,264.2h-61.192c-2.811,0-5.346,1.139-7.178,2.971c-1.832,1.842-2.971,4.377-2.971,7.178v5.719
			c0,10.085-3.781,19.712-10.639,27.103c-6.528,7.039-15.346,11.491-24.845,12.534c-5.144,0.564-9.041,4.909-9.041,10.085v49.392
			c0,3.493,1.789,6.73,4.739,8.594c1.438,0.905,2.598,2.13,3.386,3.546h-53.886c-0.98,0-1.778-0.799-1.778-1.779v-59.445
			c0-5.602-4.537-10.149-10.149-10.149H148.538c-5.612,0-10.149,4.547-10.149,10.149v49.083c0,3.493,1.789,6.73,4.739,8.594
			c1.438,0.905,2.588,2.13,3.376,3.546H92.629c-0.98,0-1.778-0.799-1.778-1.778v-65.611c0-3.695-2.013-7.103-5.261-8.892
			c-11.714-6.443-19.382-18.157-20.543-31.384v-46.282c0-5.58,0.628-11.15,1.874-16.56c3.674-15.889,12.758-30.319,25.559-40.628
			c13.173-10.617,29.084-16.23,45.984-16.23h119.763c2.918,0,5.548-1.235,7.401-3.205c5.623-5.985,12.375-10.649,19.787-13.812
			c7.401-3.174,15.442-4.846,23.62-4.846c0.319,0-0.213,2.141-0.447,3.174c-1.225,5.463,2.215,10.894,7.678,12.119
			c0.745,0.17,1.502,0.256,2.236,0.256c4.643,0,8.828-3.205,9.893-7.934c2.322-10.351,9.371-18.967,18.828-23.375
			c-2.513,5.197-4.207,10.82-4.963,16.645c-0.724,5.548,3.195,10.649,8.754,11.363c5.559,0.724,10.649-3.195,11.374-8.754
			c1.182-9.084,6.017-17.337,13.322-22.79c0.107-0.043,0.213-0.064,0.33-0.106c1.384-0.501,2.801-0.905,4.239-1.225
			c-3.578,4.526-6.454,9.648-8.456,15.175c-1.874,5.176,0.735,10.884,5.836,12.886l-0.011,0.011
			c3.802,1.491,7.38,3.504,10.628,5.964c0.064,0.043,0.117,0.096,0.181,0.149c1.32,1.001,36.826,31.501,36.826,31.501
			c-0.266,0.479-0.522,0.969-0.767,1.459c-3.514,7.199-4.015,15.335-1.416,22.907c2.598,7.572,7.998,13.674,15.186,17.188
			c4.164,2.034,8.637,3.067,13.141,3.067c1.704,0,3.408-0.16,5.101-0.447C455.71,249.589,440.599,264.2,422.133,264.2z
			 M491.301,181.667c-0.011,0.011-0.011,0.011-0.011,0.011s-4.1,9.244-15.878,18.7c-8.754,7.029-20.809,10.554-20.809,10.554
			c-2.449,0.841-5.08,0.682-7.401-0.458c-2.322-1.14-4.068-3.11-4.909-5.559c-0.841-2.439-0.671-5.069,0.458-7.391
			c1.139-2.322,3.11-4.068,5.559-4.909c0.437-0.149,12.865-0.351,21.661-3.727c10.021-3.844,16.528-10.916,16.528-10.916
			c1.225-1.161,3.163-1.129,4.334,0.085C491.897,179.175,491.822,180.72,491.301,181.667z"/>
	</g>
</g>
<g>
	<g>
		<circle cx="377.543" cy="196.61" r="10.724"/>
	</g>
</g>
<g>
	<g>
		<path d="M138.468,191.362c-21.207,0-40.071,14.988-44.851,35.638c-1.265,5.461,2.137,10.912,7.597,12.177
			c0.77,0.178,1.54,0.264,2.298,0.264c4.617,0,8.792-3.171,9.878-7.861c2.672-11.543,13.218-19.919,25.077-19.919
			c5.605,0,10.149-4.544,10.149-10.149C148.617,195.906,144.073,191.362,138.468,191.362z"/>
	</g>
</g>
</svg>